<?xml version="1.0" encoding="UTF-8"?>
<svg id="Vrstva_1" data-name="Vrstva 1" xmlns="http://www.w3.org/2000/svg" viewBox="0 0 498.6 472.24">
  <path d="M4.7,264.55l-.83,1.68c-.2-2.36-.88-4.66-1.21-7C-7.76,185.1,12.55,125.47,63.01,71.7,103.23,28.83,171.8-2.05,231.03.11c82.49,3,156.91,35.29,211.78,96.85,39.84,44.7,63.4,103.82,53.56,164.3-10.9,67-49.68,122.04-103.49,161.77-46.51,34.34-92.67,46.48-150.05,49.11-25.9,1.19-64.06-8.83-89.07-16.65-38.93-12.18-64.11-32.49-89.9-63.36-22.36-26.75-34.28-53.45-47.14-85.49-5.48-13.66-11.35-27.13-12.02-42.09ZM251.44,463.71c20.93-1.95,41.7-5.85,61.89-11.58,20.16-5.72,36.16-13.23,54.18-23.72,65.44-38.09,113.91-95.59,124.71-172.55,7.89-56.23-14.24-114.34-51.51-155.95-21.93-24.48-67.02-60.09-97.37-72.31C297.03,8.96,245.3-2.08,195.28,4.81c-11.48,1.58-22.86,4.29-33.94,7.54l.42.82c-26.8,9.62-53.17,23.1-75.15,41.28C43.41,90.17,7.48,143.83,4.26,201.16c-1.79,31.8-.68,67.08,10.18,97.22l3.3,5.74c-9.08-35.95-8.26-73.61-1.97-109.97,4.4-25.43,11.61-50.13,27.07-71.04,15.3-20.69,36.05-40.19,57.3-54.7,23.88-16.31,64.99-28.65,93.82-30.81l17.05-.42-34.53,7.36c-28.82,7.02-52.67,15.12-76.76,32.71-32.68,23.86-59.75,53.54-70.9,93.31-22.03,78.53-12.24,156.71,41.15,219.66,26.06,30.72,63.17,51.36,101.88,61.7.07.8-1.33.38-1.78.31-12.53-1.94-27.05-7.86-38.5-13.29-10.88-5.17-21.52-11.27-31.09-18.6l-.62.21c26.95,23.89,63.51,33.85,98.1,41.27,16.52,3.54,28.23,5.37,45.25,4.82,11.2-.36,22.36-.82,33.49-2.09l-3.59-.43c-6.51.52-13.2,1.16-19.72.39-.44-.05-1.97-.17-1.94-.79Z"/>
  <path d="M277.12,176.12c-.8.13-.69.89-.89,1.42-2.59,6.93-7.41,27.23-15.5,29.13-5.53,1.3-8.32-2.13-8.03-7.4-1.75.34-3.48.57-5.28.43-1.38-.11-3.46-1.03-4.5-.78-1.66.4-5.1,4.68-7.59,5.49-5.44,1.77-6.91-1.33-4.94-5.99-5.09,1.95-10.54,3.23-15.3,5.96-1.35.77-5.27,4.83-7.06,2.17-1.07-1.6,2.03-2.78,2.99-3.7,1.9-1.82,6.98-7.12,4.63-9.7-5.25-5.75-8.9,9.9-9.56,12.77-3.31,14.43-3.44,27.83-3.94,42.38-.07,1.99.63,9.59-1.54,10.25-3.91,1.19-3.75-3.12-3.93-6-.47-7.37.99-14.59,1.3-21.89.45-10.76-.48-21.51-.44-32.23-2.53,1.08-4.56,1.52-7.36,1.26-1.29-.12-3-1.02-4.1-.76-2.01.48-5.34,5.27-8.56,5.79-5.88.95-5.46-2.82-3.5-6.87,2.1-4.36,7.69-10.2,12.96-8.22l-.14,1.68c-4.96.66-8,5.28-9.5,9.65.56.57,5.62-4.22,6.42-4.73,5.13-3.28,5.42,1.14,8.55,1.35,1.35.09,5.06-1.18,5.25-2.74.28-2.22-1.55-6.76.16-9.07,3.85-1.91,3.87,4.77,4.06,7.39.11,1.5-.55,7.24.62,7.8.85.21.7-.59.93-1.15,2.54-6.34,3.53-11.44,12.02-10.11,3.42.54,5.8,2.25,5.33,5.97-.15,1.19-1.38,2.39-.19,3.18l12.14-3.75c2.43-3.33,6.8-7.18,11.2-5.46l-.36,1.87c-4.82.35-7.83,5.34-9.28,9.45.56.57,5.62-4.22,6.42-4.73,5.2-3.33,5.61,1.42,8.89,1.34,4.18-.1,4.54-3.06,7.03-4.79,3.27-2.28,6.61-1.66,10.07-.24,6.63-15.09,8.88-31.65,11.81-47.78.64-2.04,2.49-2.46,4.21-1.28l.43,1.25c.13,16.74-3.55,35.68-1.25,52.2.5,3.56,2.03,4.43,5.15,2.7,3.11-1.72,4.1-5.15,6.83-7.49,2.31-1.99,5.46-3.86,8.58-2.5l-.14,1.68c-4.96.66-8,5.28-9.5,9.65.56.57,5.62-4.22,6.42-4.73,5.13-3.28,5.42,1.14,8.55,1.35,2.24.15,4.38-1.98,5.9-2.08,3.83-.26-1.53,3.7-3.92,4.1-2.83.48-6.96-.97-8.21-.66-1.52.36-4.99,4.45-7.31,5.35-2.44.95-5.21,1-6.31-1.67-3.26,1.56-7.15,1.82-9.1-1.79-.25-.46-1.6-4.44-1.6-4.72v-20ZM265.33,195.08c-4.53-2.79-8.31.43-8.43,5.27-.03,1.3.6,4.78,2.34,3.58,2.76-1.89,4.6-5.95,6.09-8.86Z"/>
  <path d="M141.33,181.18l.63,1.05c-3.53,2.1-9.11,1.67-13.07.87-19.99-4.07-25.48-27.24-3.99-34.35,15.85-5.25,37.25-1.85,54.28-3.83,2.35-.27,9.73-2.52,11.22-1.01,1.23,1.24-.52,3.45-1.2,4.72-7.43,13.8-17.86,29.71-26.59,42.88-3.27,4.94-6.76,10.17-10.55,14.72-1.36,1.63-10.11,10.22-10.12,10.96,0,.83.72.98,1.28,1.26,2.47,1.24,8.19,2.89,11.05,3.69,8.23,2.29,14.16,3.5,21.92-1.04,2.46-1.44,4.6-4.57,7.45-3.28.94,1.39-5.12,5.45-6.31,6.11-13.94,7.64-24.47-1.15-37.04-3.4-3.47-.62-4.05,1.42-6.62,3.1-4.38,2.86-9.24,5.77-14.64,5.99-11.03.45-12.23-7.21-2.85-11.68,3.09-1.48,7.85-2.55,11.25-2.56,2.84-.01,6.8,1.41,9.5.57,1-.31,6.88-6.37,7.99-7.59,3.9-4.31,7.49-9.24,10.86-13.98,10.51-14.78,19.23-30.81,28.7-46.27v-1.02c-4.88.04-9.96,1.06-14.92,1.28-13.14.56-41.43-2.72-50.97,7.55-7.81,8.41-1.12,19.82,7.93,23.66.94.4,4.36,1.61,5.13,1.61h9.68ZM125.44,217.92c-3.51.44-12.31,3.48-10.46,8.14,2.82,3.65,15.74-3.5,17.71-6.78-1.91-1.73-4.81-1.67-7.25-1.36Z"/>
  <path d="M213.96,311.28l4.04,20.24c-11.47,3.49-23.21,6.33-35.18,7.54l-2.56-22.02,4.68-1.31,3.75-10.99,11.93-.95c1.72.52,6.53,7.35,8.31,8.14,1.18.52,3.65-.91,5.03-.65Z"/>
  <path d="M163.35,308.42l5.98,8.96,5.05-.21,2.11,22.31c-12.6,1.22-25.39.2-37.9-1.68l2.11-19.78,5.05-.21,5.74-9.41,11.85.02Z"/>
  <path d="M257.74,318.84l-33.04,10.93-4.8-19.49c.37-1.07,2.94-.82,3.87-1.2,1.48-.61,2.6-8.48,3.67-10.22l12.44-2.14c2.17,1.04,7.17,6.17,9.19,6.11,1.15-.03,3.47-1.52,4.27-.4l4.4,16.41Z"/>
  <path d="M134.81,317.18l-2.53,19.37c-12.33-3.29-24.48-7.64-35.27-14.51l4.98-11.99c1.77-.36,3.42,1.58,5.13,1.16,1.57-.38,5.56-4.4,7.32-5.29l11.54,2.2c2.4,3.98,2.7,10.35,8.84,9.06Z"/>
  <path d="M259.01,299.91l4.55-.93,3.31-9.22,12.58-2.72c2.08.77,5.82,4.38,7.67,4.78,1.95.42,3.36-.89,5.18-.59l4.1,13.95-32.49,11.11-4.89-16.4Z"/>
  <path d="M332.28,281.39l2.53,12.2-32.84,10.12-3.8-14.31,4.96-1.36,3.56-7.81,12.77-2.16c1.44.07,6.13,4.03,7.71,4.37,1.09.24,4.92-1.23,5.1-1.05Z"/>
  <path d="M351.44,167.7c1.45.19,2.27,1.11.78,2.04l-14.67.49-.99.69-.5,11.75c.65,5.13.56,16.72,5.05,20.21,3.29,2.57,8.59-1.38,9.8-4.56.38-1,.21-1.97.53-2.83,1.02-2.71,2.86-6.09,6.25-5.41l.72.99c-.79,1.58-2.21,2.69-2.68,4.5-.63,2.43-.67,6.99,2.35,7.45,2.99-1.42,5.12-6.43,3.78-9.52-.56-1.29-2.51-1.56-2.55-2.77-.07-2.24,5.37-2.43,7.09-.5,1.83,2.05-.69,5.59,3.76,6.76,4.94,1.3,6.2-1.54,9.68-2.16,1.66-.3,1.46.91.67,1.96-1.44,1.9-5.72,2.96-8.02,2.96-1.74,0-4.32-1.16-5.7-.71-1.43.46-2.47,3.47-3.8,4.65-3.16,2.79-9.23,2.91-11.13-1.45-6.22,7.1-14.25,6.18-17.8-2.84-3.68-9.35-1.11-18.51-2.18-27.71-.07-.61-.05-1.08-.65-1.45h-7.16c-1.38,0-1.98-2.53-.84-2.53h8.42l.56-.7c-.09-1.28.37-2.5.49-3.72.21-2.29-.06-9.63,1.25-10.96,1.08-1.1,3.13-.59,3.39.86.72,3.96-.92,9.01-.44,13.07.07.61.05,1.08.65,1.45,4.35.42,9.68-.57,13.89,0Z"/>
  <path d="M372.7,275.91l.6,9.31-33.02,6.69-2.11-11.79c1.37-.05,3.73-.09,4.87-.82,1.32-.84,3.09-4.91,4.41-5.69,1.16-.68,11.1-1.3,12.83-1.08,3.99.49,7.48,5.93,12.41,3.38Z"/>
  <path d="M96.91,307.5l-5.68,10.93c-7.32-5.52-14.15-11.65-19.99-18.74-.75-.91-5.54-7.06-5.46-7.51.47-2.8,4.24.86,5.36,1.3,2.32.91,4.79.59,6.94,1.06,1.19.26,10.9,4.72,11.45,5.4,2.38,2.97,2.25,7.06,7.38,7.57Z"/>
  <path d="M413.97,278.02l-.85,5.89c-11.08-1.65-22.48-.26-33.68.42l-.42-8.42c.18-.18,3.78.19,4.75-.09,1.27-.36,4.56-3.84,6.03-4,1.54-.18,10.84,1.07,12.56,1.59,2.34.71,4.31,2.91,6.42,3.68,1.68.61,3.46.55,5.18.93Z"/>
  <path d="M452.7,290.23l-1.04,2c-10.44-4.16-21.48-6.48-32.61-7.93l.76-4.78c.44-.68,3.76.57,4.88.62,1.7.08,3.05-.45,4.63-.47,2.79-.04,8.64,2.56,11.32,3.88,4.28,2.11,7.45,5.5,12.06,6.68Z"/>
  <path d="M280.49,241.18c3.81-2.45,10.62,1.51,5.45,5.09l1.71,4.38c-3.49.87-1.86-5.44-5.06-3.96v3.97s-2.1,0-2.1,0v-9.47ZM282.59,245.18c4.5.58,4.49-3.54,0-2.95v2.95Z"/>
  <path d="M344.49,240.54c3.76.12,6.78-.53,7.18,3.98.53,6.04-1.66,6.4-7.18,6.13v-10.11ZM346.17,248.97l3.18-.39c.19-1.45.73-5.47-.66-6.13l-2.53-.21v6.74Z"/>
  <path d="M230.38,240.54c2.69.06,6.9-.6,6.78,3.16-.08,2.42-1.72,2.15-1.75,2.55-.07.95,2.06,3.03,1.71,4.39l-1.61-.07c-.74-.44-1.22-5.58-3.44-3.89v3.97s-1.68,0-1.68,0v-10.11ZM232.07,245.18c4.5.58,4.49-3.54,0-2.95v2.95Z"/>
  <path d="M332.15,241.52c2.24,2.05,1.76,11.29-4.39,8.81-2.6-1.05-2.56-7.88-.49-9.12,1.49-.89,3.57-.89,4.88.31ZM328.13,248.9c3.92,2.43,4.96-7.89.66-6.6-1.84.55-1.23,6.24-.66,6.6Z"/>
  <path d="M295.51,241.52c2.24,2.05,1.76,11.29-4.39,8.81-2.6-1.05-2.56-7.88-.49-9.12,1.49-.89,3.57-.89,4.88.31ZM291.5,248.9c3.92,2.43,4.96-7.89.66-6.6-1.84.55-1.23,6.24-.66,6.6Z"/>
  <path d="M247.23,250.65l-2.05-.06-.74-1.57h-3.47s-.54,1.58-.54,1.58l-1.62.06c.11-1.26,2.49-9.62,2.92-9.92.57-.41,1.88-.33,2.35.23,1.12,1.35,2.08,7.77,3.15,9.68ZM244.28,247.7c.26-.24-.82-3.22-1.06-3.79-.17-.4-.04-.96-.62-.84l-1.25,4c.69.96,1.93.59,2.93.62Z"/>
  <path d="M368.91,243.91c-1.33,1.28-2.47-2.95-4.64-1.48-2.52,1.7,3.92,2.95,4.43,4.01,2.39,4.98-7.2,5.99-6.94.85,1.1-1.04,4.15,4.1,5.49.62-.01-1.78-5.68-1.45-5.28-4.89.35-2.96,5.2-3.14,6.55-1.02.29.45.64,1.68.39,1.92Z"/>
  <path d="M228.07,240.54c.58.16.74,1.12.63,1.68h-5.05s0,2.53,0,2.53h3.37s0,1.47,0,1.47l-3.37.21v2.53h5.06s0,1.68,0,1.68h-6.74v-10.11h6.11Z"/>
  <path d="M315.65,240.54c.58.16.74,1.12.63,1.68h-5.05s0,2.53,0,2.53h3.37s0,1.47,0,1.47l-3.37.21v2.53s5.06,0,5.06,0v1.68h-6.74v-10.11h6.11Z"/>
  <path d="M267.23,240.54c.58.16.74,1.12.63,1.68l-5.06.24v2.29s3.38.21,3.38.21v1.47s-3.37,0-3.37,0v2.53h5.05c.18.47-.18,1.68-.63,1.68h-6.11v-10.11h6.11Z"/>
  <path d="M355.02,248.33l.7.56c.95.27,2.67.29,2.67-.98v-6.74l1.05-.64.94.62c-1.12,2.85,1.28,8.13-2.39,9.3-2.14.69-5.07-.64-5.07-2.97v-6.32c0-.79,2.11-.79,2.11,0v7.16Z"/>
  <path d="M248.49,240.54c7.8-1.59,10.79,6.44,1.68,6.31v3.79s-1.68,0-1.68,0v-10.11ZM250.17,245.18c4.72.89,5.22-3.76.39-2.76l-.39,2.76Z"/>
  <path d="M272.07,240.54c7.83-1.61,10.66,6.41,1.68,6.31v3.79s-1.68,0-1.68,0v-10.11ZM273.75,245.18l2.95-.21c1.85-2.38-.69-3.12-2.95-2.74v2.95Z"/>
  <polygon points="220.28 240.54 220.28 242.23 217.75 242.23 217.75 250.65 215.65 250.02 215.65 242.23 213.12 242.23 213.12 240.54 220.28 240.54"/>
  <polygon points="307.86 240.54 307.86 242.23 305.33 242.23 305.33 250.65 303.23 250.02 303.23 242.23 300.7 242.23 300.7 240.54 307.86 240.54"/>
  <polygon points="319.65 240.54 319.65 248.97 324.7 248.97 324.7 250.65 317.96 250.65 317.96 240.54 319.65 240.54"/>
  <path d="M302.47,178.74c.57-.33,1.88-.06,2.59-.02.67.27.83.64.64,1.34-.1.36-4.2,5.63-4.57,5.97-1.3,1.18-2.28.72-1.94-1.07.16-.82,2.85-5.96,3.28-6.21Z"/>
  <path d="M372.28,240.54v10.11h-1.68v-9.47c0-.45,1.2-.8,1.68-.63Z"/>
  <path d="M339.44,240.54v10.11h-1.68v-9.47c0-.45,1.2-.8,1.68-.63Z"/>
  <path d="M259.02,250.65h-1.68v-10.11c.49-.17,1.68.19,1.68.63v9.47Z"/>
  <path d="M314.59,238.02c-.35,2.33-3.07,2.29-3.78.21.55-.76,1.53.48,1.89.48.38,0,1.11-1.01,1.89-.69Z"/>
  <path d="M367.22,238.02c-.35,2.33-3.07,2.29-3.78.21.55-.76,1.53.48,1.89.48.38,0,1.11-1.01,1.89-.69Z"/>
</svg>